<?xml version="1.0" standalone="no"?>
<!DOCTYPE svg PUBLIC "-//W3C//DTD SVG 20010904//EN"
 "http://www.w3.org/TR/2001/REC-SVG-20010904/DTD/svg10.dtd">
<svg version="1.0" xmlns="http://www.w3.org/2000/svg"
 width="512.000000pt" height="512.000000pt" viewBox="0 0 512.000000 512.000000"
 preserveAspectRatio="xMidYMid meet">
<metadata>
Created by potrace 1.14, written by Peter Selinger 2001-2017
</metadata>
<g transform="translate(0.000000,512.000000) scale(0.100000,-0.100000)"
fill="#000000" stroke="none">
<path d="M1503 4669 c-43 -21 -85 -68 -103 -114 -6 -15 -11 -61 -12 -101 -1
-41 -4 -75 -7 -75 -3 -1 -114 -3 -246 -4 -216 -3 -247 -5 -307 -25 -138 -45
-239 -151 -278 -294 -16 -56 -17 -186 -15 -1621 1 -1396 3 -1564 17 -1601 55
-141 135 -225 263 -275 l60 -23 1129 -1 c786 -1 1131 -5 1133 -12 9 -26 93
-137 148 -194 146 -152 334 -257 560 -310 76 -18 297 -20 389 -3 250 44 493
185 642 374 24 30 48 60 53 66 47 58 133 247 157 344 34 136 39 366 11 488
-71 305 -228 522 -506 699 -3 2 -5 461 -6 1021 -1 898 -3 1023 -17 1064 -45
133 -143 233 -277 280 -49 17 -86 19 -307 21 l-251 1 0 78 c0 60 -5 87 -23
120 -30 58 -45 73 -96 97 -115 54 -255 -2 -295 -119 -6 -16 -12 -62 -12 -102
l-2 -73 -745 -1 -745 -1 -3 81 c-3 116 -37 177 -118 215 -57 27 -135 27 -191
0z"/>
</g>
</svg>
